<svg width="19" height="28" viewBox="0 0 19 28" fill="none" xmlns="http://www.w3.org/2000/svg">
<path d="M12.5312 7.95216C13.3952 8.22408 14.6769 9.12399 15.2927 9.71664C15.4967 9.91283 15.8762 9.90094 16.1219 9.71664L18.5175 7.35168C18.7018 7.16737 18.7018 6.73744 18.5788 6.52247C17.6995 5.67073 16.0524 4.53301 14.792 4.03955L12.5312 7.95216V7.95216Z" fill="#2D7AFE"/>
<path d="M4.92895 16.0802C4.81912 15.5599 4.76058 15.0041 4.76058 14.4159C4.76058 11.079 6.55827 8.50942 9.62383 7.95494L12.2294 3.44561C11.7926 3.38928 11.3498 3.35925 10.9033 3.35925C4.54563 3.35925 0 7.93553 0 14.4159C0 17.0615 0.748778 19.3304 2.02138 21.1121L4.92895 16.0802V16.0802Z" fill="#2D7AFE"/>
<path d="M10.9024 20.988C9.32218 20.988 7.87623 20.437 6.78481 19.4353L4.43359 23.5041C6.24346 24.7757 8.48077 25.4723 10.9024 25.4723C13.8509 25.4723 16.6458 24.1821 18.5805 22.3394C18.7342 22.1858 18.6728 21.7559 18.5805 21.5409L16.2462 19.2066C15.9393 18.961 15.5093 18.9303 15.2944 19.1146C14.1272 20.2818 12.5914 20.988 10.9024 20.988V20.988Z" fill="#2D7AFE"/>
<path d="M4.83845 17.1784C4.90229 17.0736 4.94611 16.9709 4.96958 16.8702C4.99336 16.7694 5.00023 16.6136 4.99084 16.4021L4.85975 13.4498C4.85318 13.3037 4.83252 13.1873 4.79748 13.1009C4.76243 13.0148 4.72332 12.9742 4.67983 12.9789C4.63039 12.9842 4.58251 13.0302 4.53651 13.1168L0.859503 19.5255C0.795983 19.6304 0.752193 19.7333 0.728412 19.8341C0.704944 19.9345 0.697726 20.0906 0.707113 20.3019L0.838541 23.2545C0.844799 23.4006 0.865779 23.517 0.900511 23.6034C0.935557 23.6891 0.974976 23.7301 1.01816 23.7254C1.06791 23.7201 1.11578 23.6741 1.16178 23.5874L4.83845 17.1784V17.1784Z" fill="#2D7AFE"/>
<path d="M12.0255 4.19991C12.089 4.09508 12.1331 3.99246 12.1566 3.89171C12.1801 3.79095 12.1873 3.63512 12.1779 3.4236L12.0465 0.471285C12.0402 0.325157 12.0193 0.208773 11.9845 0.122411C11.9495 0.0363608 11.9104 -0.00432956 11.8669 0.000364066C11.8171 0.00568351 11.7692 0.0516859 11.7233 0.138362L8.04658 6.54736C7.98274 6.65188 7.93892 6.75481 7.91545 6.85557C7.89167 6.95632 7.8848 7.11216 7.89419 7.32337L8.02528 10.276C8.03185 10.4221 8.05251 10.5385 8.08755 10.6249C8.1226 10.7106 8.16171 10.7516 8.2052 10.7469C8.25464 10.7416 8.30252 10.6956 8.34851 10.6089L12.0255 4.19991V4.19991Z" fill="#2D7AFE"/>
<path d="M7.75685 21.0402C7.82037 20.9354 7.86447 20.8328 7.88794 20.732C7.91141 20.6313 7.91863 20.4755 7.90924 20.2639L7.77812 17.3116C7.77155 17.1652 7.75057 17.0491 7.71584 16.9627C7.68079 16.8767 7.64169 16.836 7.59819 16.8407C7.54844 16.846 7.50057 16.892 7.45457 16.9787L3.7779 23.3874C3.71407 23.4922 3.67024 23.5951 3.64678 23.6959C3.623 23.7963 3.61612 23.9525 3.62551 24.1637L3.75663 27.1163C3.7632 27.2624 3.78383 27.3788 3.81888 27.4652C3.85392 27.5509 3.89306 27.5919 3.93655 27.5872C3.98599 27.5816 4.03384 27.5356 4.07984 27.4489L7.75685 21.0402V21.0402Z" fill="#2D7AFE"/>
</svg>
