<svg width="85" height="47" viewBox="0 0 85 47" fill="none" xmlns="http://www.w3.org/2000/svg">
<g filter="url(#filter0_dii_1_461)">
<rect x="2" y="6" width="78" height="36.5106" rx="18.2553" fill="#2E303E"/>
<rect x="2" y="6" width="78" height="36.5106" rx="18.2553" fill="url(#paint0_linear_1_461)" fill-opacity="0.4" style="mix-blend-mode:soft-light"/>
<rect x="2.25" y="6.25" width="77.5" height="36.0106" rx="18.0053" stroke="#31333D" stroke-width="0.5"/>
</g>
<g filter="url(#filter1_dd_1_461)">
<circle cx="62.5745" cy="24.2554" r="13.2766" fill="url(#paint1_linear_1_461)" style="mix-blend-mode:soft-light"/>
<circle cx="62.5745" cy="24.2554" r="13.0266" stroke="white" stroke-opacity="0.4" stroke-width="0.5"/>
</g>
<path d="M21.9149 27.367C21.0896 27.367 20.2981 27.0391 19.7146 26.4556C19.131 25.872 18.8032 25.0805 18.8032 24.2553C18.8032 23.43 19.131 22.6385 19.7146 22.055C20.2981 21.4714 21.0896 21.1436 21.9149 21.1436C22.7402 21.1436 23.5316 21.4714 24.1152 22.055C24.6988 22.6385 25.0266 23.43 25.0266 24.2553C25.0266 25.0805 24.6988 25.872 24.1152 26.4556C23.5316 27.0391 22.7402 27.367 21.9149 27.367ZM21.9149 28.4042C23.0153 28.4042 24.0706 27.9671 24.8486 27.189C25.6267 26.4109 26.0638 25.3556 26.0638 24.2553C26.0638 23.1549 25.6267 22.0996 24.8486 21.3215C24.0706 20.5435 23.0153 20.1063 21.9149 20.1063C20.8145 20.1063 19.7592 20.5435 18.9812 21.3215C18.2031 22.0996 17.766 23.1549 17.766 24.2553C17.766 25.3556 18.2031 26.4109 18.9812 27.189C19.7592 27.9671 20.8145 28.4042 21.9149 28.4042V28.4042ZM21.9149 15.9574C22.0524 15.9574 22.1844 16.012 22.2816 16.1093C22.3789 16.2066 22.4335 16.3385 22.4335 16.476V18.5505C22.4335 18.688 22.3789 18.8199 22.2816 18.9172C22.1844 19.0145 22.0524 19.0691 21.9149 19.0691C21.7773 19.0691 21.6454 19.0145 21.5482 18.9172C21.4509 18.8199 21.3963 18.688 21.3963 18.5505V16.476C21.3963 16.3385 21.4509 16.2066 21.5482 16.1093C21.6454 16.012 21.7773 15.9574 21.9149 15.9574V15.9574ZM21.9149 29.4414C22.0524 29.4414 22.1844 29.4961 22.2816 29.5933C22.3789 29.6906 22.4335 29.8225 22.4335 29.9601V32.0345C22.4335 32.1721 22.3789 32.304 22.2816 32.4012C22.1844 32.4985 22.0524 32.5531 21.9149 32.5531C21.7773 32.5531 21.6454 32.4985 21.5482 32.4012C21.4509 32.304 21.3963 32.1721 21.3963 32.0345V29.9601C21.3963 29.8225 21.4509 29.6906 21.5482 29.5933C21.6454 29.4961 21.7773 29.4414 21.9149 29.4414V29.4414ZM30.2128 24.2553C30.2128 24.3928 30.1581 24.5247 30.0609 24.622C29.9636 24.7192 29.8317 24.7739 29.6941 24.7739H27.6197C27.4821 24.7739 27.3502 24.7192 27.253 24.622C27.1557 24.5247 27.1011 24.3928 27.1011 24.2553C27.1011 24.1177 27.1557 23.9858 27.253 23.8886C27.3502 23.7913 27.4821 23.7367 27.6197 23.7367H29.6941C29.8317 23.7367 29.9636 23.7913 30.0609 23.8886C30.1581 23.9858 30.2128 24.1177 30.2128 24.2553ZM16.7287 24.2553C16.7287 24.3928 16.6741 24.5247 16.5768 24.622C16.4796 24.7192 16.3477 24.7739 16.2101 24.7739H14.1356C13.9981 24.7739 13.8662 24.7192 13.7689 24.622C13.6717 24.5247 13.617 24.3928 13.617 24.2553C13.617 24.1177 13.6717 23.9858 13.7689 23.8886C13.8662 23.7913 13.9981 23.7367 14.1356 23.7367H16.2101C16.3477 23.7367 16.4796 23.7913 16.5768 23.8886C16.6741 23.9858 16.7287 24.1177 16.7287 24.2553ZM27.7825 18.3876C27.8798 18.4849 27.9344 18.6168 27.9344 18.7543C27.9344 18.8918 27.8798 19.0237 27.7825 19.121L26.3159 20.5886C26.2677 20.6368 26.2104 20.675 26.1475 20.701C26.0845 20.727 26.017 20.7404 25.9488 20.7404C25.8112 20.7403 25.6793 20.6855 25.582 20.5881C25.5339 20.5399 25.4957 20.4827 25.4697 20.4197C25.4436 20.3567 25.4303 20.2892 25.4303 20.2211C25.4304 20.0835 25.4852 19.9515 25.5826 19.8543L27.0492 18.3876C27.1465 18.2904 27.2783 18.2358 27.4159 18.2358C27.5534 18.2358 27.6853 18.2904 27.7825 18.3876V18.3876ZM18.2472 27.9229C18.3445 28.0202 18.3991 28.1521 18.3991 28.2896C18.3991 28.4271 18.3445 28.559 18.2472 28.6563L16.7806 30.1229C16.6828 30.2174 16.5518 30.2696 16.4158 30.2685C16.2798 30.2673 16.1497 30.2127 16.0536 30.1166C15.9574 30.0204 15.9029 29.8904 15.9017 29.7544C15.9005 29.6184 15.9528 29.4874 16.0473 29.3896L17.5139 27.9229C17.6112 27.8257 17.7431 27.7711 17.8806 27.7711C18.0181 27.7711 18.15 27.8257 18.2472 27.9229V27.9229ZM27.7825 30.1229C27.6853 30.2201 27.5534 30.2747 27.4159 30.2747C27.2783 30.2747 27.1465 30.2201 27.0492 30.1229L25.5826 28.6563C25.4881 28.5584 25.4358 28.4274 25.437 28.2915C25.4382 28.1555 25.4927 28.0254 25.5889 27.9292C25.685 27.8331 25.8151 27.7785 25.9511 27.7774C26.0871 27.7762 26.2181 27.8285 26.3159 27.9229L27.7825 29.3896C27.8798 29.4868 27.9344 29.6187 27.9344 29.7562C27.9344 29.8938 27.8798 30.0256 27.7825 30.1229ZM18.2472 20.5886C18.15 20.6859 18.0181 20.7405 17.8806 20.7405C17.7431 20.7405 17.6112 20.6859 17.5139 20.5886L16.0473 19.121C15.9977 19.0731 15.9582 19.0159 15.931 18.9526C15.9039 18.8893 15.8895 18.8213 15.889 18.7524C15.8884 18.6836 15.9015 18.6153 15.9276 18.5515C15.9536 18.4878 15.9921 18.4299 16.0408 18.3812C16.0895 18.3325 16.1474 18.294 16.2112 18.2679C16.2749 18.2419 16.3432 18.2287 16.4121 18.2293C16.4809 18.2299 16.549 18.2442 16.6122 18.2714C16.6755 18.2986 16.7327 18.3381 16.7806 18.3876L18.2472 19.8543C18.2955 19.9025 18.3338 19.9597 18.36 20.0227C18.3861 20.0857 18.3996 20.1533 18.3996 20.2215C18.3996 20.2897 18.3861 20.3572 18.36 20.4202C18.3338 20.4832 18.2955 20.5405 18.2472 20.5886V20.5886Z" fill="url(#paint2_linear_1_461)" fill-opacity="0.74"/>
<path d="M57.7353 27.0437C58.2834 27.994 59.0549 28.7965 59.9829 29.3816C60.9109 29.9667 61.9675 30.3169 63.0613 30.4019C64.1551 30.4868 65.2531 30.304 66.2603 29.8692C67.2676 29.4344 68.1537 28.7607 68.842 27.9065C66.1038 26.8551 64.4334 25.5658 63.4323 23.6545C62.4186 21.72 62.1391 19.6308 62.6972 16.9709C61.8286 17.086 60.9852 17.3704 60.2066 17.8202C58.6558 18.7156 57.5242 20.1904 57.0607 21.9201C56.5973 23.6499 56.8399 25.4929 57.7353 27.0437V27.0437ZM67.4425 30.3546C66.4323 30.9367 65.3033 31.2824 64.1404 31.3658C62.9775 31.4492 61.8108 31.2681 60.7279 30.8361C59.645 30.4041 58.674 29.7324 57.8878 28.8714C57.1016 28.0105 56.5206 26.9826 56.1885 25.865C55.8564 24.7474 55.7818 23.5691 55.9702 22.4185C56.1586 21.2679 56.6052 20.175 57.2765 19.2217C57.9477 18.2684 58.8262 17.4795 59.8459 16.9143C60.8657 16.3491 62.0002 16.0222 63.1644 15.9582C63.2546 15.9534 63.3447 15.9697 63.4275 16.006C63.5103 16.0422 63.5835 16.0973 63.6412 16.1668C63.6989 16.2364 63.7396 16.3185 63.7599 16.4065C63.7802 16.4946 63.7797 16.5862 63.7583 16.674C63.0928 19.3997 63.3385 21.3893 64.2902 23.2057C65.1936 24.9313 66.7509 26.1364 69.6584 27.1782C69.7419 27.2079 69.8174 27.2565 69.8791 27.32C69.9408 27.3836 69.9871 27.4605 70.0144 27.5448C70.0417 27.6291 70.0493 27.7186 70.0365 27.8063C70.0238 27.894 69.991 27.9776 69.9408 28.0506C69.2903 28.9945 68.437 29.781 67.4434 30.3526L67.4425 30.3546Z" fill="#384466" fill-opacity="0.5"/>
<defs>
<filter id="filter0_dii_1_461" x="-0.5" y="3.5" width="83" height="43.0106" filterUnits="userSpaceOnUse" color-interpolation-filters="sRGB">
<feFlood flood-opacity="0" result="BackgroundImageFix"/>
<feColorMatrix in="SourceAlpha" type="matrix" values="0 0 0 0 0 0 0 0 0 0 0 0 0 0 0 0 0 0 127 0" result="hardAlpha"/>
<feOffset dy="2"/>
<feGaussianBlur stdDeviation="1"/>
<feComposite in2="hardAlpha" operator="out"/>
<feColorMatrix type="matrix" values="0 0 0 0 0.0676042 0 0 0 0 0.0696094 0 0 0 0 0.0916667 0 0 0 1 0"/>
<feBlend mode="normal" in2="BackgroundImageFix" result="effect1_dropShadow_1_461"/>
<feBlend mode="normal" in="SourceGraphic" in2="effect1_dropShadow_1_461" result="shape"/>
<feColorMatrix in="SourceAlpha" type="matrix" values="0 0 0 0 0 0 0 0 0 0 0 0 0 0 0 0 0 0 127 0" result="hardAlpha"/>
<feOffset dx="2.5" dy="2.5"/>
<feGaussianBlur stdDeviation="2.5"/>
<feComposite in2="hardAlpha" operator="arithmetic" k2="-1" k3="1"/>
<feColorMatrix type="matrix" values="0 0 0 0 0.114062 0 0 0 0 0.122964 0 0 0 0 0.1875 0 0 0 1 0"/>
<feBlend mode="normal" in2="shape" result="effect2_innerShadow_1_461"/>
<feColorMatrix in="SourceAlpha" type="matrix" values="0 0 0 0 0 0 0 0 0 0 0 0 0 0 0 0 0 0 127 0" result="hardAlpha"/>
<feOffset dx="-2.5" dy="-2.5"/>
<feGaussianBlur stdDeviation="2.5"/>
<feComposite in2="hardAlpha" operator="arithmetic" k2="-1" k3="1"/>
<feColorMatrix type="matrix" values="0 0 0 0 0.129861 0 0 0 0 0.141898 0 0 0 0 0.229167 0 0 0 1 0"/>
<feBlend mode="normal" in2="effect2_innerShadow_1_461" result="effect3_innerShadow_1_461"/>
</filter>
<filter id="filter1_dd_1_461" x="38.7979" y="0.47876" width="45.5532" height="45.5532" filterUnits="userSpaceOnUse" color-interpolation-filters="sRGB">
<feFlood flood-opacity="0" result="BackgroundImageFix"/>
<feColorMatrix in="SourceAlpha" type="matrix" values="0 0 0 0 0 0 0 0 0 0 0 0 0 0 0 0 0 0 127 0" result="hardAlpha"/>
<feOffset dx="2.5" dy="2.5"/>
<feGaussianBlur stdDeviation="3"/>
<feColorMatrix type="matrix" values="0 0 0 0 0.6512 0 0 0 0 0.66896 0 0 0 0 0.74 0 0 0 1 0"/>
<feBlend mode="normal" in2="BackgroundImageFix" result="effect1_dropShadow_1_461"/>
<feColorMatrix in="SourceAlpha" type="matrix" values="0 0 0 0 0 0 0 0 0 0 0 0 0 0 0 0 0 0 127 0" result="hardAlpha"/>
<feOffset dx="-2.5" dy="-2.5"/>
<feGaussianBlur stdDeviation="4"/>
<feColorMatrix type="matrix" values="0 0 0 0 0.979167 0 0 0 0 0.983333 0 0 0 0 1 0 0 0 0.5 0"/>
<feBlend mode="hard-light" in2="effect1_dropShadow_1_461" result="effect2_dropShadow_1_461"/>
<feBlend mode="normal" in="SourceGraphic" in2="effect2_dropShadow_1_461" result="shape"/>
</filter>
<linearGradient id="paint0_linear_1_461" x1="122.861" y1="24.2553" x2="96.4186" y2="-37.8292" gradientUnits="userSpaceOnUse">
<stop stop-color="#E9ECF6"/>
<stop offset="1" stop-color="white"/>
</linearGradient>
<linearGradient id="paint1_linear_1_461" x1="90.4422" y1="24.2554" x2="63.889" y2="-4.92686" gradientUnits="userSpaceOnUse">
<stop stop-color="#E9ECF6"/>
<stop offset="1" stop-color="white"/>
</linearGradient>
<linearGradient id="paint2_linear_1_461" x1="19.0106" y1="15.9574" x2="23.9894" y2="28.8191" gradientUnits="userSpaceOnUse">
<stop stop-color="white"/>
<stop offset="1" stop-color="#C3C7D7"/>
</linearGradient>
</defs>
</svg>
